<svg width="25" height="26" viewBox="0 0 25 26" fill="none" xmlns="http://www.w3.org/2000/svg">
<path d="M13 0.958008C6.34958 0.958008 0.958344 6.34925 0.958344 12.9997C0.958344 19.6501 6.34958 25.0413 13 25.0413C19.2583 25.0413 24.4008 20.2676 24.9862 14.1624C25.0135 13.8782 24.8675 13.6055 24.6159 13.4706C24.3644 13.3357 24.0564 13.3649 23.8348 13.5448C22.6169 14.533 21.066 15.1247 19.375 15.1247C15.463 15.1247 12.2917 11.9534 12.2917 8.04134C12.2917 5.71786 13.4096 3.65567 15.14 2.36287C15.3688 2.19193 15.4726 1.90032 15.4032 1.62329C15.3338 1.34626 15.1048 1.13801 14.8224 1.09512C14.2277 1.00479 13.6191 0.958008 13 0.958008Z" fill="#F8CC5C"/>
</svg>
