<svg width="40" height="40" viewBox="0 0 40 40" fill="none" xmlns="http://www.w3.org/2000/svg">
<path d="M15 16.6667C16.841 16.6667 18.3333 15.1743 18.3333 13.3333C18.3333 11.4924 16.841 10 15 10C13.1591 10 11.6667 11.4924 11.6667 13.3333C11.6667 15.1743 13.1591 16.6667 15 16.6667Z" stroke="#425061" stroke-width="1.5" stroke-linecap="round" stroke-linejoin="round"/>
<path d="M21.6667 3.33301H15C6.66666 3.33301 3.33333 6.66634 3.33333 14.9997V24.9997C3.33333 33.333 6.66666 36.6663 15 36.6663H25C33.3333 36.6663 36.6667 33.333 36.6667 24.9997V16.6663" stroke="#425061" stroke-width="1.5" stroke-linecap="round" stroke-linejoin="round"/>
<path d="M26.25 8.33301H35.4167" stroke="#425061" stroke-width="1.5" stroke-linecap="round"/>
<path d="M30.8333 12.9167V3.75" stroke="#425061" stroke-width="1.5" stroke-linecap="round"/>
<path d="M4.45 31.5836L12.6667 26.0669C13.9833 25.1836 15.8833 25.2836 17.0667 26.3003L17.6167 26.7836C18.9167 27.9003 21.0167 27.9003 22.3167 26.7836L29.25 20.8336C30.55 19.7169 32.65 19.7169 33.95 20.8336L36.6667 23.1669" stroke="#425061" stroke-width="1.5" stroke-linecap="round" stroke-linejoin="round"/>
</svg>
