<svg width="112" height="35" viewBox="0 0 112 35" fill="none" xmlns="http://www.w3.org/2000/svg">
<g clip-path="url(#clip0_18_89)">
<path d="M13.974 12.4886V16.2273H22.9972C22.7577 18.2955 22.039 19.8864 20.9211 20.9205C19.6435 22.1932 17.5673 23.625 13.974 23.625C8.46427 23.625 4.15228 19.1705 4.15228 13.6818C4.15228 8.19318 8.38441 3.73864 13.974 3.73864C16.9285 3.73864 19.1644 4.93182 20.7614 6.44318L23.3965 3.81818C21.1607 1.67045 18.1263 0 13.974 0C6.38812 0 0 6.125 0 13.6818C0 21.2386 6.38812 27.3636 13.974 27.3636C18.0465 27.3636 21.1607 26.0114 23.5562 23.5455C26.0316 21.0795 26.8301 17.5795 26.8301 14.7955C26.8301 13.9205 26.7503 13.125 26.6704 12.4886H13.974Z" fill="#212A35"/>
<path d="M38.0093 9.38635C33.1383 9.38635 29.0659 13.125 29.0659 18.2159C29.0659 23.3068 33.0585 27.0454 38.0093 27.0454C42.9601 27.0454 46.9527 23.3864 46.9527 18.2954C46.9527 13.125 42.9601 9.38635 38.0093 9.38635ZM38.0093 23.625C35.2943 23.625 32.9786 21.3977 32.9786 18.2954C32.9786 15.1136 35.2943 12.9659 38.0093 12.9659C40.7242 12.9659 43.0399 15.1136 43.0399 18.2954C43.0399 21.3977 40.7242 23.625 38.0093 23.625Z" fill="#212A35"/>
<path d="M81.6882 11.375H81.5285C80.6501 10.3409 78.9732 9.38635 76.8173 9.38635C72.3456 9.38635 68.5127 13.2045 68.5127 18.2159C68.5127 23.1477 72.3456 27.0454 76.8173 27.0454C78.9732 27.0454 80.6501 26.0909 81.5285 25.0568H81.6882V26.3295C81.6882 29.6704 79.8516 31.5 76.977 31.5C74.5814 31.5 73.1441 29.8295 72.5053 28.3182L69.1515 29.75C70.1097 32.0568 72.7448 35 77.0568 35C81.6083 35 85.5211 32.2954 85.5211 25.7727V9.86362H81.8479V11.375H81.6882ZM77.2165 23.625C74.5016 23.625 72.5053 21.3182 72.5053 18.2954C72.5053 15.1932 74.5814 12.9659 77.2165 12.9659C79.8516 12.9659 81.9278 15.2727 81.9278 18.375C82.0076 21.3977 79.9315 23.625 77.2165 23.625Z" fill="#212A35"/>
<path d="M57.8924 9.38635C53.0214 9.38635 48.949 13.125 48.949 18.2159C48.949 23.3068 52.9416 27.0454 57.8924 27.0454C62.8431 27.0454 66.8357 23.3864 66.8357 18.2954C66.8357 13.125 62.8431 9.38635 57.8924 9.38635ZM57.8924 23.625C55.1774 23.625 52.8617 21.3977 52.8617 18.2954C52.8617 15.1136 55.1774 12.9659 57.8924 12.9659C60.6073 12.9659 62.923 15.1136 62.923 18.2954C62.923 21.3977 60.6073 23.625 57.8924 23.625Z" fill="#212A35"/>
<path d="M88.4756 0.397705H92.3085V27.125H88.4756V0.397705Z" fill="#212A35"/>
<path d="M104.126 23.625C102.13 23.625 100.773 22.75 99.8145 20.9204L111.712 16.0682L111.313 15.0341C110.594 13.0454 108.279 9.38635 103.727 9.38635C99.1756 9.38635 95.3428 12.9659 95.3428 18.2159C95.3428 23.1477 99.0958 27.0454 104.126 27.0454C108.199 27.0454 110.515 24.5795 111.553 23.1477L108.518 21.1591C107.48 22.6704 106.123 23.625 104.126 23.625ZM103.887 12.7273C105.484 12.7273 106.841 13.5227 107.241 14.6364L99.2555 17.9773C99.1756 14.3182 101.891 12.7273 103.887 12.7273Z" fill="#212A35"/>
</g>
<defs>
<clipPath id="clip0_18_89">
<rect width="111.712" height="35" fill="white"/>
</clipPath>
</defs>
</svg>
