<svg width="41" height="53" viewBox="0 0 41 53" fill="none" xmlns="http://www.w3.org/2000/svg">
<path d="M15.6041 44.1147C15.3986 45.1854 17.8695 45.5886 26.1282 45.8664C34.8707 46.1547 36.8098 45.9002 36.6035 44.6084C36.298 42.8355 15.981 42.3916 15.6041 44.1147Z" fill="#FFDC94"/>
<path d="M13.7604 5.53414C10.5207 5.149 10.0381 5.65484 7.0792 12.5154C4.01564 19.5982 3.70814 21.001 4.98792 21.6851C7.31349 22.9159 8.7259 21.3003 12.9521 12.7286C16.0664 6.40281 16.1515 5.8184 13.7604 5.53414Z" fill="#FFDC94"/>
<path d="M30.3469 18.8016C28.0211 18.4938 27.1177 18.8558 24.0433 21.2908C14.9513 28.5487 7.8811 33.0118 12.4203 33.5201C14.2715 33.7402 16.1009 32.5652 27.0182 24.4292C33.0321 19.903 33.4558 19.2338 30.3469 18.8016Z" fill="#FFDC94"/>
</svg>
