<svg width="185" height="35" viewBox="0 0 185 35" fill="none" xmlns="http://www.w3.org/2000/svg">
<g clip-path="url(#clip0_18_124)">
<path d="M181.316 21.5054C181.316 17.4728 179.301 14.6033 175.773 14.6033C172.052 14.6033 169.842 17.4728 169.842 21.5054C169.842 25.538 172.052 28.408 175.773 28.408C179.301 28.408 181.316 25.538 181.316 21.5054ZM185 3.87868V31.1221C185 31.2383 184.922 31.3159 184.806 31.3159H181.899C181.783 31.3159 181.744 31.2383 181.705 31.1221L181.316 29.5711C181.24 29.3383 181.046 29.3773 180.929 29.4935C179.882 30.5406 177.325 31.7037 175.385 31.7037C169.725 31.7037 166.16 27.5549 166.16 21.5054C166.16 15.4564 169.725 11.3069 175.385 11.3069C178.101 11.3069 180.464 12.9748 180.929 13.5178C181.123 13.7503 181.316 13.5949 181.316 13.4402V3.87868C181.316 3.7625 181.394 3.68472 181.511 3.68472H184.806C184.922 3.68472 185 3.7625 185 3.87868ZM142.466 28.0196H141.342C140.533 28.0196 140.07 27.3298 140.064 26.7503V3.87868C140.064 3.7625 139.987 3.68472 139.87 3.68472H136.575C136.459 3.68472 136.381 3.7625 136.381 3.87868C136.381 3.99356 136.381 23.393 136.381 26.4188C136.381 28.6188 137.227 29.7537 137.732 30.2593C138.25 30.7765 139.009 31.0878 140.025 31.2268C140.425 31.2816 140.856 31.3159 141.342 31.3159H142.466C142.582 31.3159 142.66 31.2383 142.66 31.1221V28.2141C142.66 28.0974 142.582 28.0196 142.466 28.0196ZM52.7876 3.68472H49.4926C49.3761 3.68472 49.2982 3.7625 49.2982 3.87868V31.1221C49.2982 31.2383 49.3761 31.3159 49.4926 31.3159H52.7876C52.9038 31.3159 52.9814 31.2383 52.9814 31.1221V3.87868C52.9814 3.7625 52.9038 3.68472 52.7876 3.68472ZM123.601 14.6033C126.237 14.6033 128.098 15.8441 128.951 18.1321C128.989 18.2481 129.067 18.3259 129.183 18.3259H132.633C132.75 18.3259 132.866 18.2875 132.827 18.1321C131.781 13.8663 128.525 11.3069 123.601 11.3069C117.514 11.3069 114.025 15.4172 114.025 21.5054C114.025 27.5549 117.514 31.7037 123.601 31.7037C128.525 31.7037 131.741 29.1835 132.827 24.8793C132.866 24.7239 132.75 24.6855 132.633 24.6855H129.183C129.067 24.6855 128.989 24.7625 128.951 24.8793C128.098 27.1672 126.237 28.408 123.601 28.408C119.918 28.408 117.708 25.538 117.708 21.5054C117.708 17.4728 119.918 14.6033 123.601 14.6033ZM158.592 22.7077C158.592 22.5915 158.514 22.5139 158.398 22.5139H152.97C148.861 22.5139 148.125 24.1424 148.125 25.4994C148.125 26.8957 149.094 28.408 152.195 28.408C156.886 28.408 158.514 25.6157 158.592 23.2507V22.7077ZM164.872 28.2141V31.1221C164.872 31.2383 164.794 31.3159 164.678 31.3159H163.553C161.344 31.3159 160.026 30.7728 159.445 29.5321C159.367 29.3383 159.173 29.3773 159.096 29.4545C158.165 30.4244 155.762 31.7037 152.195 31.7037C147.001 31.7037 144.442 29.1835 144.442 25.4994C144.442 22.1262 147.272 19.6052 152.97 19.6052H157.313C158.165 19.6052 158.592 18.8689 158.592 18.3259C158.592 16.7358 158.204 14.6033 153.591 14.6033C150.257 14.6033 148.745 16.1543 148.745 18.1321C148.745 18.2481 148.667 18.3259 148.551 18.3259H145.256C145.139 18.3259 145.062 18.2481 145.062 18.1321C145.062 13.5563 149.21 11.3069 153.591 11.3069C158.941 11.3069 162.275 13.5949 162.275 18.3259V26.7404C162.275 27.3218 162.74 28.0196 163.553 28.0196H164.678C164.794 28.0196 164.872 28.0974 164.872 28.2141ZM68.9051 11.3069H66.9277C64.9895 11.3069 63.5552 12.354 62.237 13.6725C62.1208 13.7887 61.8881 13.8663 61.8106 13.634L61.4231 11.8886C61.3841 11.7723 61.3459 11.6947 61.2292 11.6947H58.3217C58.2052 11.6947 58.128 11.7723 58.128 11.8886V31.1221C58.128 31.2383 58.2052 31.3159 58.3217 31.3159H61.6169C61.7333 31.3159 61.8106 31.2383 61.8106 31.1221V20.4583C61.8106 17.4342 63.6713 14.6033 66.9277 14.6033H68.9051C69.0211 14.6033 69.099 14.5256 69.099 14.4095V11.5009C69.099 11.3847 69.0211 11.3069 68.9051 11.3069ZM85.9133 21.5054C85.9133 17.4728 83.7037 14.6033 79.9817 14.6033C76.2995 14.6033 74.0505 17.4728 74.0505 21.5054C74.0505 25.538 76.2995 28.408 79.9817 28.408C83.7037 28.408 85.9133 25.538 85.9133 21.5054ZM89.5963 21.5054C89.5963 27.5549 86.0298 31.7037 79.9817 31.7037C73.8958 31.7037 70.3682 27.5549 70.3682 21.5054C70.3682 15.4172 73.8958 11.3069 79.9817 11.3069C86.0298 11.3069 89.5963 15.4564 89.5963 21.5054ZM110.688 20.4583V31.1221C110.688 31.2383 110.611 31.3159 110.495 31.3159H107.199C107.083 31.3159 107.005 31.2383 107.005 31.1221V20.4583C107.005 17.5112 105.687 14.6033 101.85 14.6033C98.5929 14.6033 96.7326 17.4342 96.7326 20.4583V31.1221C96.7326 31.2383 96.6551 31.3159 96.5386 31.3159H93.2435C93.127 31.3159 93.0493 31.2383 93.0493 31.1221V11.8886C93.0493 11.7723 93.127 11.6947 93.2435 11.6947H96.1512C96.2671 11.6947 96.3059 11.7723 96.3449 11.8886L96.7326 13.634C96.7711 13.8663 97.0808 13.7887 97.1586 13.6725C97.9339 12.5093 99.6396 11.3069 102.237 11.3069C107.858 11.3069 110.688 15.4172 110.688 20.4583Z" fill="#212A35"/>
<path d="M0.218812 27.1713H9.51896C9.62065 27.1713 9.7031 27.0889 9.7031 26.9871V8.0137C9.7031 7.91194 9.62065 7.82947 9.51896 7.82947H0.218812C0.117121 7.82947 0.034668 7.91194 0.034668 8.0137V11.3295C0.034668 11.4311 0.117121 11.5135 0.218812 11.5135H6.01991V23.4871H0.218812C0.117121 23.4871 0.034668 23.5696 0.034668 23.6713V26.9871C0.034668 27.0889 0.117121 27.1713 0.218812 27.1713Z" fill="#212A35"/>
<path d="M31.1578 0.000649526H0.218812C0.117121 0.000649526 0.034668 0.0831243 0.034668 0.184884V3.50065C0.034668 3.60241 0.117121 3.68472 0.218812 3.68472H13.8466V31.3159H0.218812C0.117121 31.3159 0.034668 31.3984 0.034668 31.5002V34.8157C0.034668 34.9175 0.117121 35 0.218812 35H31.1578C31.2595 35 31.342 34.9175 31.342 34.8157V31.5002C31.342 31.3984 31.2595 31.3159 31.1578 31.3159H17.5299V3.68472H31.1578C31.2595 3.68472 31.342 3.60241 31.342 3.50065V0.184884C31.342 0.0831243 31.2595 0.000649526 31.1578 0.000649526Z" fill="#212A35"/>
<path d="M31.1578 7.82947H21.8576C21.756 7.82947 21.6736 7.91194 21.6736 8.0137V26.9871C21.6736 27.0889 21.756 27.1713 21.8576 27.1713H31.1578C31.2595 27.1713 31.342 27.0889 31.342 26.9871V23.6713C31.342 23.5696 31.2595 23.4871 31.1578 23.4871H25.3567V11.5135H31.1578C31.2595 11.5135 31.342 11.4311 31.342 11.3295V8.0137C31.342 7.91194 31.2595 7.82947 31.1578 7.82947Z" fill="#212A35"/>
</g>
<defs>
<clipPath id="clip0_18_124">
<rect width="184.965" height="35" fill="white" transform="translate(0.034668)"/>
</clipPath>
</defs>
</svg>
