<svg width="195" height="50" viewBox="0 0 195 50" fill="none" xmlns="http://www.w3.org/2000/svg">
<path fill-rule="evenodd" clip-rule="evenodd" d="M18.375 5.08333C26.2681 5.08333 32.6667 11.4819 32.6667 19.375C32.6667 27.2681 26.2681 33.6667 18.375 33.6667C16.6595 33.6667 15.019 33.3653 13.5005 32.8144C12.8311 32.5716 12.0868 32.5173 11.3608 32.6956C9.41083 33.1745 7.42016 33.4784 5.41259 33.6025C6.16752 31.6135 6.42834 29.4632 6.16295 27.3391C6.10392 26.8666 5.94938 26.4523 5.7658 26.1094C4.69269 24.1049 4.08333 21.8141 4.08333 19.375C4.08333 11.4819 10.4819 5.08333 18.375 5.08333ZM36.75 19.375C36.75 9.22677 28.5232 1 18.375 1C8.22677 1 0 9.22677 0 19.375C0 22.4716 0.767623 25.3948 2.12459 27.959C2.33639 29.8493 1.94392 31.7642 0.994968 33.4249L0.911228 33.5714C-0.152718 35.4333 1.19169 37.75 3.33615 37.75C6.33303 37.75 9.31271 37.3929 12.2131 36.6907C14.1419 37.3772 16.2171 37.75 18.375 37.75C28.5232 37.75 36.75 29.5232 36.75 19.375ZM41.5586 17.8603C40.6967 18.5874 40.5874 19.8755 41.3144 20.7373C43.5632 23.4032 44.9167 26.843 44.9167 30.6042C44.9167 33.2228 44.261 35.6822 43.1067 37.8332C42.9216 38.1781 42.768 38.592 42.7086 39.0618C42.4167 41.3702 42.7154 43.7087 43.5675 45.86C41.3496 45.7352 39.1502 45.4048 36.9974 44.8741C36.2708 44.695 35.5245 44.749 34.8529 44.994C33.2184 45.5904 31.4517 45.9167 29.6042 45.9167C25.843 45.9167 22.4032 44.5632 19.7373 42.3144C18.8755 41.5874 17.5874 41.6967 16.8603 42.5586C16.1333 43.4204 16.2426 44.7085 17.1045 45.4356C20.4793 48.2824 24.8438 50 29.6042 50C31.8955 50 34.0983 49.6018 36.1442 48.8692C39.2277 49.6188 42.3961 50 45.5829 50C47.7634 50 49.1304 47.6444 48.0486 45.7512L48.0486 45.7512L47.9596 45.5955C46.9339 43.8004 46.512 41.7294 46.7461 39.6864C48.1854 36.9748 49 33.8816 49 30.6042C49 25.8438 47.2824 21.4793 44.4356 18.1045C43.7085 17.2426 42.4204 17.1333 41.5586 17.8603ZM10.2083 21.4167C11.3359 21.4167 12.25 20.5026 12.25 19.375C12.25 18.2474 11.3359 17.3333 10.2083 17.3333C9.08075 17.3333 8.16667 18.2474 8.16667 19.375C8.16667 20.5026 9.08075 21.4167 10.2083 21.4167ZM20.4167 19.375C20.4167 20.5026 19.5026 21.4167 18.375 21.4167C17.2474 21.4167 16.3333 20.5026 16.3333 19.375C16.3333 18.2474 17.2474 17.3333 18.375 17.3333C19.5026 17.3333 20.4167 18.2474 20.4167 19.375ZM26.5417 21.4167C27.6693 21.4167 28.5833 20.5026 28.5833 19.375C28.5833 18.2474 27.6693 17.3333 26.5417 17.3333C25.4141 17.3333 24.5 18.2474 24.5 19.375C24.5 20.5026 25.4141 21.4167 26.5417 21.4167Z" fill="white"/>
<path d="M66.8761 19.6891C67.7019 19.6891 68.5712 19.5488 69.4839 19.2681C70.3967 18.9659 71.2985 18.5665 72.1896 18.0699C73.1023 17.5518 73.9607 16.9473 74.7648 16.2565C75.5906 15.544 76.3077 14.7776 76.9162 13.9573C77.5465 13.1153 78.0463 12.2409 78.4157 11.3342C78.7852 10.4059 78.9699 9.47755 78.9699 8.54922C78.9699 8.16062 78.8938 7.75043 78.7417 7.31865C78.6113 6.88687 78.3831 6.48748 78.0571 6.12047C77.7529 5.75345 77.34 5.45121 76.8184 5.21373C76.2969 4.95466 75.6558 4.82513 74.8952 4.82513C73.4174 4.82513 72.0048 5.17055 70.6575 5.8614C69.3318 6.55225 68.0931 7.49136 66.9413 8.67876C65.7895 9.86615 64.7355 11.2586 63.7793 12.8562C62.8449 14.4322 62.0408 16.1161 61.3671 17.908C60.7151 19.6999 60.2044 21.5458 59.835 23.4456C59.4873 25.3454 59.3134 27.1913 59.3134 28.9832C59.3134 31.0341 59.4982 33.0311 59.8676 34.9741C60.237 36.8955 60.8238 38.601 61.6279 40.0907C62.4537 41.5803 63.5294 42.7785 64.8551 43.6852C66.1807 44.5704 67.8106 45.013 69.7447 45.013C71.1573 45.013 72.4286 44.8079 73.5587 44.3977C74.6887 43.9875 75.6558 43.5449 76.4599 43.0699C77.2639 42.5734 77.8833 42.12 78.3179 41.7098C78.7526 41.2781 78.9916 41.0514 79.0351 41.0298C79.3176 40.5548 79.6327 40.2742 79.9804 40.1878C80.3499 40.1015 80.6976 40.1446 81.0235 40.3174C81.3713 40.4901 81.6864 40.7599 81.9689 41.1269C82.2514 41.4724 82.4687 41.8502 82.6208 42.2604C82.7947 42.6706 82.8708 43.0807 82.849 43.4909C82.8273 43.9011 82.686 44.2358 82.4252 44.4948C82.3818 44.538 82.2188 44.6999 81.9363 44.9806C81.6538 45.2612 81.2517 45.6066 80.7302 46.0168C80.2086 46.427 79.5675 46.8588 78.8069 47.3122C78.0463 47.7871 77.1879 48.2189 76.2317 48.6075C75.2755 49.0177 74.2106 49.3523 73.0371 49.6114C71.8853 49.8705 70.6357 50 69.2884 50C66.8978 50 64.7573 49.5035 62.8666 48.5104C60.9759 47.5173 59.3678 46.114 58.0421 44.3005C56.7382 42.4655 55.7385 40.2526 55.0431 37.6619C54.3477 35.0712 54 32.1783 54 28.9832C54 26.8243 54.2282 24.6114 54.6846 22.3446C55.1409 20.0777 55.8037 17.8756 56.673 15.7383C57.564 13.5794 58.6397 11.5501 59.9002 9.65026C61.1606 7.72884 62.5949 6.0557 64.2031 4.63083C65.8113 3.20596 67.5824 2.08333 69.5165 1.26295C71.4507 0.420984 73.5261 0 75.7427 0C76.938 0 78.0571 0.183506 79.1003 0.550518C80.1434 0.91753 81.0344 1.46805 81.7733 2.20207C82.5339 2.9361 83.1315 3.85363 83.5662 4.95466C84.0008 6.03411 84.2181 7.29706 84.2181 8.74352C84.2181 10.1036 83.9465 11.4313 83.4032 12.7267C82.8816 14.022 82.1753 15.2526 81.2843 16.4184C80.3933 17.5626 79.3502 18.6205 78.1549 19.592C76.9814 20.5635 75.7318 21.4054 74.4062 22.1179C73.1023 22.8087 71.7766 23.3484 70.4293 23.737C69.0819 24.1256 67.7889 24.3199 66.5501 24.3199C65.7243 24.3199 65.018 24.0717 64.4313 23.5751C63.8663 23.057 63.5837 22.2474 63.5837 21.1464C63.5837 20.9089 63.5946 20.6714 63.6163 20.4339C63.6598 20.1749 63.7141 19.9482 63.7793 19.7539C63.8445 19.538 63.9206 19.3653 64.0075 19.2358C64.1162 19.1062 64.2248 19.0415 64.3335 19.0415C64.4422 19.0415 64.5399 19.0738 64.6269 19.1386C64.7355 19.2034 64.8659 19.2789 65.018 19.3653C65.1919 19.4516 65.4201 19.5272 65.7026 19.592C65.9851 19.6567 66.3763 19.6891 66.8761 19.6891Z" fill="url(#paint0_linear_18_253)"/>
<path d="M87.0541 6.41192C87.0541 5.93696 87.0107 5.55915 86.9237 5.2785C86.8585 4.99784 86.7825 4.78195 86.6956 4.63083C86.6304 4.45812 86.5543 4.32858 86.4674 4.24223C86.4022 4.13428 86.3696 4.02634 86.3696 3.91839C86.3696 3.78886 86.4348 3.68092 86.5652 3.59456C86.6956 3.5082 86.8694 3.43264 87.0867 3.36788C87.304 3.30311 87.5322 3.25993 87.7713 3.23834C88.0321 3.19516 88.282 3.17358 88.521 3.17358C89.6294 3.17358 90.4986 3.46503 91.1289 4.04793C91.7808 4.60924 92.1068 5.28929 92.1068 6.08808V27.8497C92.5632 26.9214 93.0521 26.0579 93.5737 25.2591C94.117 24.4603 94.6929 23.7694 95.3014 23.1865C95.9316 22.582 96.5944 22.1179 97.2898 21.794C98.007 21.4486 98.7785 21.2759 99.6043 21.2759C100.713 21.2759 101.625 21.481 102.342 21.8912C103.06 22.3014 103.625 22.8303 104.038 23.478C104.45 24.1256 104.733 24.8489 104.885 25.6477C105.059 26.4465 105.146 27.2237 105.146 27.9793V41.7098C105.146 41.861 105.157 42.1092 105.178 42.4547C105.2 42.7785 105.265 43.1131 105.374 43.4585C105.483 43.804 105.646 44.1062 105.863 44.3653C106.102 44.6244 106.439 44.7539 106.874 44.7539C107.547 44.7539 108.123 44.5164 108.601 44.0415C109.101 43.5665 109.525 42.9728 109.873 42.2604C110.242 41.5479 110.535 40.7815 110.753 39.9611C110.992 39.1192 111.187 38.3312 111.339 37.5972C111.47 36.9279 111.665 36.4421 111.926 36.1399C112.209 35.8377 112.502 35.6757 112.806 35.6541C113.132 35.611 113.458 35.6865 113.784 35.8808C114.11 36.0751 114.393 36.3342 114.632 36.658C114.871 36.9603 115.045 37.3057 115.153 37.6943C115.284 38.0829 115.306 38.4499 115.219 38.7953C114.914 39.8964 114.512 41.0514 114.012 42.2604C113.534 43.4693 112.915 44.5812 112.154 45.5959C111.394 46.6105 110.481 47.4525 109.416 48.1218C108.351 48.791 107.102 49.1256 105.667 49.1256C104.776 49.1256 103.983 48.9529 103.288 48.6075C102.614 48.2837 102.027 47.8411 101.528 47.2798C101.049 46.7185 100.68 46.06 100.419 45.3044C100.18 44.5488 100.061 43.75 100.061 42.908V29.4365C100.061 28.9184 100.05 28.4326 100.028 27.9793C100.006 27.5259 99.9411 27.1265 99.8325 26.7811C99.7455 26.4357 99.6043 26.1658 99.4087 25.9715C99.2348 25.7556 98.9849 25.6477 98.6589 25.6477C98.1808 25.6477 97.5941 25.9715 96.8987 26.6192C96.2032 27.2668 95.5187 28.1088 94.845 29.1451C94.1713 30.1813 93.5737 31.3579 93.0521 32.6749C92.5523 33.9702 92.2372 35.2763 92.1068 36.5933V46.2759C92.1068 46.5997 92.0959 46.9344 92.0742 47.2798C92.0742 47.6036 92.009 47.8951 91.8786 48.1541C91.7699 48.4348 91.5852 48.6615 91.3244 48.8342C91.0854 49.0285 90.7268 49.1256 90.2487 49.1256C89.9227 49.1256 89.5642 49.0825 89.173 48.9961C88.8035 48.9313 88.4558 48.791 88.1299 48.5751C87.8256 48.3808 87.5648 48.0894 87.3475 47.7008C87.1519 47.3338 87.0541 46.8372 87.0541 46.2111V6.41192Z" fill="url(#paint1_linear_18_253)"/>
<path d="M130.507 44.7539C131.181 44.7539 131.757 44.5164 132.235 44.0415C132.734 43.5665 133.158 42.9728 133.506 42.2604C133.875 41.5479 134.169 40.7815 134.386 39.9611C134.625 39.1192 134.821 38.3312 134.973 37.5972C135.125 36.9063 135.342 36.4098 135.625 36.1075C135.929 35.7837 136.255 35.6218 136.603 35.6218C136.864 35.6218 137.124 35.7081 137.385 35.8808C137.668 36.032 137.918 36.237 138.135 36.4961C138.374 36.7552 138.559 37.0466 138.689 37.3705C138.841 37.6943 138.917 38.0181 138.917 38.342C138.917 38.3851 138.917 38.4391 138.917 38.5039C138.917 38.5687 138.895 38.6658 138.852 38.7953C138.569 39.8964 138.178 41.0514 137.678 42.2604C137.2 43.4693 136.581 44.5812 135.82 45.5959C135.06 46.6105 134.136 47.4525 133.05 48.1218C131.985 48.791 130.735 49.1256 129.301 49.1256C128.127 49.1256 127.106 48.8774 126.237 48.3808C125.367 47.8843 124.683 47.2258 124.183 46.4054C123.509 47.1611 122.694 47.7979 121.738 48.3161C120.804 48.8558 119.706 49.1256 118.446 49.1256C117.142 49.1256 115.99 48.8666 114.99 48.3484C114.012 47.8303 113.187 47.1287 112.513 46.2435C111.839 45.3368 111.329 44.2789 110.981 43.0699C110.655 41.8394 110.492 40.5225 110.492 39.1192C110.492 36.3558 110.937 33.8731 111.828 31.671C112.719 29.4689 113.904 27.6015 115.382 26.0687C116.859 24.5142 118.544 23.3269 120.434 22.5065C122.347 21.6861 124.324 21.2759 126.367 21.2759C127.28 21.2759 128.019 21.5242 128.584 22.0207C129.149 22.5173 129.431 23.1973 129.431 24.0609C129.431 24.6222 129.366 25.0216 129.236 25.2591C129.127 25.475 128.91 25.5829 128.584 25.5829C128.279 25.5829 127.964 25.5613 127.638 25.5181C127.312 25.475 126.976 25.4534 126.628 25.4534C125.367 25.4534 124.085 25.734 122.781 26.2953C121.477 26.8351 120.293 27.677 119.228 28.8212C118.185 29.9439 117.327 31.3795 116.653 33.1282C115.979 34.8554 115.642 36.9171 115.642 39.3135C115.642 41.0622 115.979 42.4115 116.653 43.3614C117.327 44.2897 118.25 44.7539 119.424 44.7539C120.336 44.7539 121.097 44.4193 121.706 43.75C122.314 43.0592 122.803 42.2496 123.172 41.3212V31.0881C123.172 30.7642 123.151 30.4944 123.107 30.2785C123.086 30.0626 123.053 29.8791 123.009 29.728C122.988 29.5769 122.966 29.4473 122.944 29.3394C122.923 29.2098 122.912 29.0911 122.912 28.9832C122.912 28.6377 123.075 28.3679 123.401 28.1736C123.748 27.9577 124.161 27.8497 124.639 27.8497C125.748 27.8497 126.628 28.1412 127.28 28.7241C127.932 29.2854 128.258 29.9655 128.258 30.7642V41.7098C128.258 42.0769 128.301 42.4439 128.388 42.8109C128.475 43.1563 128.605 43.4801 128.779 43.7824C128.953 44.063 129.181 44.3005 129.464 44.4948C129.768 44.6675 130.116 44.7539 130.507 44.7539Z" fill="url(#paint2_linear_18_253)"/>
<path d="M129.268 16.0946C129.768 16.1377 130.322 16.1701 130.931 16.1917C131.452 16.2349 132.083 16.2673 132.821 16.2889C133.56 16.2889 134.386 16.2997 135.299 16.3212V5.0842C135.299 4.60924 135.255 4.23143 135.168 3.95078C135.103 3.67012 135.027 3.45423 134.94 3.30311C134.875 3.1304 134.799 3.00086 134.712 2.91451C134.647 2.80656 134.614 2.69862 134.614 2.59067C134.614 2.46114 134.679 2.3532 134.81 2.26684C134.94 2.18048 135.114 2.10492 135.331 2.04016C135.549 1.97539 135.777 1.93221 136.016 1.91062C136.277 1.86744 136.527 1.84585 136.766 1.84585C137.874 1.84585 138.743 2.13731 139.374 2.72021C140.025 3.28152 140.351 3.96157 140.351 4.76036V16.386C142.394 16.386 144.546 16.3644 146.806 16.3212C149.088 16.2781 151.37 16.2025 153.651 16.0946C153.956 15.7707 154.195 15.652 154.369 15.7383C154.564 15.8247 154.684 16.0298 154.727 16.3536C154.792 16.6775 154.803 17.0769 154.76 17.5518C154.716 18.0268 154.629 18.4909 154.499 18.9443C154.369 19.3761 154.184 19.7539 153.945 20.0777C153.727 20.4016 153.478 20.5635 153.195 20.5635C150.522 20.6282 148.153 20.6714 146.089 20.693C144.046 20.693 142.133 20.693 140.351 20.693V41.7098C140.351 42.7893 140.558 43.5665 140.971 44.0415C141.384 44.5164 141.938 44.7539 142.633 44.7539C143.307 44.7539 143.883 44.5164 144.361 44.0415C144.861 43.5665 145.285 42.9728 145.632 42.2604C146.002 41.5479 146.295 40.7815 146.512 39.9611C146.752 39.1192 146.947 38.3312 147.099 37.5972C147.23 36.9063 147.447 36.4098 147.751 36.1075C148.055 35.7837 148.371 35.6218 148.697 35.6218C148.957 35.6218 149.229 35.7081 149.511 35.8808C149.794 36.032 150.044 36.237 150.261 36.4961C150.5 36.7552 150.685 37.0466 150.815 37.3705C150.967 37.6943 151.044 38.0181 151.044 38.342C151.044 38.3851 151.044 38.4391 151.044 38.5039C151.044 38.5687 151.022 38.6658 150.978 38.7953C150.696 39.8964 150.305 41.0514 149.805 42.2604C149.327 43.4693 148.697 44.5812 147.914 45.5959C147.154 46.6105 146.241 47.4525 145.176 48.1218C144.111 48.791 142.862 49.1256 141.427 49.1256C140.536 49.1256 139.71 48.9853 138.95 48.7047C138.211 48.4456 137.57 48.0138 137.027 47.4093C136.483 46.8264 136.059 46.0708 135.755 45.1425C135.451 44.2142 135.299 43.0915 135.299 41.7746V20.693C134.56 20.693 133.897 20.693 133.31 20.693C132.745 20.6714 132.267 20.6498 131.876 20.6282C131.42 20.6066 131.018 20.5851 130.67 20.5635C130.148 20.5635 129.692 20.3368 129.301 19.8834C128.888 19.4085 128.605 18.8903 128.453 18.329C128.279 17.7677 128.258 17.2604 128.388 16.807C128.497 16.332 128.79 16.0946 129.268 16.0946Z" fill="url(#paint3_linear_18_253)"/>
<path d="M141.395 16.0946C141.894 16.1377 142.449 16.1701 143.057 16.1917C143.579 16.2349 144.209 16.2673 144.948 16.2889C145.687 16.2889 146.512 16.2997 147.425 16.3212V5.0842C147.425 4.60924 147.382 4.23143 147.295 3.95078C147.23 3.67012 147.154 3.45423 147.067 3.30311C147.001 3.1304 146.925 3.00086 146.838 2.91451C146.773 2.80656 146.741 2.69862 146.741 2.59067C146.741 2.46114 146.806 2.3532 146.936 2.26684C147.067 2.18048 147.24 2.10492 147.458 2.04016C147.675 1.97539 147.903 1.93221 148.142 1.91062C148.403 1.86744 148.653 1.84585 148.892 1.84585C150 1.84585 150.87 2.13731 151.5 2.72021C152.152 3.28152 152.478 3.96157 152.478 4.76036V16.386C154.521 16.386 156.672 16.3644 158.932 16.3212C161.214 16.2781 163.496 16.2025 165.778 16.0946C166.082 15.7707 166.321 15.652 166.495 15.7383C166.69 15.8247 166.81 16.0298 166.853 16.3536C166.919 16.6775 166.93 17.0769 166.886 17.5518C166.843 18.0268 166.756 18.4909 166.625 18.9443C166.495 19.3761 166.31 19.7539 166.071 20.0777C165.854 20.4016 165.604 20.5635 165.321 20.5635C162.648 20.6282 160.28 20.6714 158.215 20.693C156.172 20.693 154.26 20.693 152.478 20.693V41.7098C152.478 42.7893 152.684 43.5665 153.097 44.0415C153.51 44.5164 154.064 44.7539 154.76 44.7539C155.433 44.7539 156.009 44.5164 156.487 44.0415C156.987 43.5665 157.411 42.9728 157.759 42.2604C158.128 41.5479 158.422 40.7815 158.639 39.9611C158.878 39.1192 159.073 38.3312 159.226 37.5972C159.356 36.9063 159.573 36.4098 159.878 36.1075C160.182 35.7837 160.497 35.6218 160.823 35.6218C161.084 35.6218 161.355 35.7081 161.638 35.8808C161.92 36.032 162.17 36.237 162.388 36.4961C162.627 36.7552 162.811 37.0466 162.942 37.3705C163.094 37.6943 163.17 38.0181 163.17 38.342C163.17 38.3851 163.17 38.4391 163.17 38.5039C163.17 38.5687 163.148 38.6658 163.105 38.7953C162.822 39.8964 162.431 41.0514 161.931 42.2604C161.453 43.4693 160.823 44.5812 160.041 45.5959C159.28 46.6105 158.367 47.4525 157.302 48.1218C156.237 48.791 154.988 49.1256 153.554 49.1256C152.663 49.1256 151.837 48.9853 151.076 48.7047C150.337 48.4456 149.696 48.0138 149.153 47.4093C148.61 46.8264 148.186 46.0708 147.882 45.1425C147.577 44.2142 147.425 43.0915 147.425 41.7746V20.693C146.686 20.693 146.023 20.693 145.437 20.693C144.872 20.6714 144.394 20.6498 144.002 20.6282C143.546 20.6066 143.144 20.5851 142.796 20.5635C142.275 20.5635 141.818 20.3368 141.427 19.8834C141.014 19.4085 140.732 18.8903 140.58 18.329C140.406 17.7677 140.384 17.2604 140.514 16.807C140.623 16.332 140.917 16.0946 141.395 16.0946Z" fill="url(#paint4_linear_18_253)"/>
<path d="M163.072 15.3821C162.529 15.3821 162.007 15.2742 161.507 15.0583C161.029 14.8424 160.606 14.551 160.236 14.1839C159.888 13.8169 159.606 13.3959 159.389 12.921C159.171 12.4244 159.063 11.8955 159.063 11.3342C159.063 10.7513 159.171 10.2116 159.389 9.71503C159.606 9.21848 159.888 8.7975 160.236 8.45207C160.606 8.08506 161.029 7.8044 161.507 7.6101C162.007 7.39421 162.529 7.28627 163.072 7.28627C163.659 7.28627 164.202 7.39421 164.702 7.6101C165.202 7.8044 165.626 8.08506 165.973 8.45207C166.343 8.7975 166.625 9.21848 166.821 9.71503C167.038 10.2116 167.147 10.7513 167.147 11.3342C167.147 11.8955 167.038 12.4244 166.821 12.921C166.625 13.3959 166.343 13.8169 165.973 14.1839C165.626 14.551 165.202 14.8424 164.702 15.0583C164.202 15.2742 163.659 15.3821 163.072 15.3821ZM164.604 41.7098C164.604 41.861 164.615 42.1092 164.637 42.4547C164.659 42.7785 164.724 43.1131 164.832 43.4585C164.941 43.804 165.115 44.1062 165.354 44.3653C165.593 44.6244 165.93 44.7539 166.364 44.7539C167.016 44.7539 167.581 44.5164 168.06 44.0415C168.559 43.5665 168.983 42.9728 169.331 42.2604C169.7 41.5479 170.005 40.7815 170.244 39.9611C170.483 39.1192 170.678 38.3312 170.83 37.5972C170.961 36.9279 171.156 36.4421 171.417 36.1399C171.7 35.8377 171.993 35.6757 172.297 35.6541C172.623 35.611 172.938 35.6865 173.243 35.8808C173.569 36.0751 173.851 36.3342 174.09 36.658C174.351 36.9603 174.536 37.3057 174.644 37.6943C174.775 38.0829 174.796 38.4499 174.71 38.7953C174.405 39.8964 174.003 41.0514 173.503 42.2604C173.025 43.4693 172.406 44.5812 171.645 45.5959C170.885 46.6105 169.972 47.4525 168.907 48.1218C167.842 48.791 166.593 49.1256 165.158 49.1256C164.267 49.1256 163.474 48.9529 162.779 48.6075C162.083 48.2837 161.497 47.8411 161.018 47.2798C160.54 46.7185 160.171 46.06 159.91 45.3044C159.671 44.5488 159.552 43.75 159.552 42.908V25.1943C159.552 24.5682 159.497 24.1149 159.389 23.8342C159.302 23.5535 159.258 23.2945 159.258 23.057C159.258 22.7332 159.432 22.4741 159.78 22.2798C160.127 22.0639 160.54 21.956 161.018 21.956C162.127 21.956 162.996 22.2474 163.626 22.8303C164.278 23.3916 164.604 24.0717 164.604 24.8705V41.7098Z" fill="url(#paint5_linear_18_253)"/>
<path d="M186.445 27.9793C186.445 29.2098 186.227 30.4728 185.793 31.7681C185.38 33.0635 184.75 34.294 183.902 35.4598C183.076 36.6041 182.044 37.6403 180.805 38.5687C179.588 39.4754 178.176 40.1662 176.568 40.6412C176.785 41.2025 177.067 41.7422 177.415 42.2604C177.785 42.7569 178.219 43.1887 178.719 43.5557C179.219 43.9227 179.795 44.2142 180.447 44.4301C181.12 44.6459 181.892 44.7539 182.761 44.7539C184.065 44.7539 185.184 44.5164 186.119 44.0415C187.053 43.5449 187.836 42.8972 188.466 42.0984C189.118 41.2997 189.639 40.4037 190.03 39.4106C190.422 38.4175 190.715 37.4136 190.911 36.399C191.063 35.6649 191.367 35.1792 191.823 34.9417C192.301 34.6826 192.78 34.6179 193.258 34.7474C193.757 34.8769 194.181 35.1576 194.529 35.5894C194.898 35.9996 195.051 36.4961 194.985 37.079C194.898 37.7483 194.746 38.5147 194.529 39.3782C194.333 40.2418 194.029 41.1161 193.616 42.0013C193.203 42.8864 192.671 43.7608 192.019 44.6244C191.389 45.4663 190.606 46.2219 189.672 46.8912C188.737 47.5604 187.64 48.1002 186.38 48.5104C185.119 48.9206 183.674 49.1256 182.044 49.1256C180.523 49.1256 179.045 48.8234 177.611 48.2189C176.198 47.636 174.938 46.794 173.829 45.693C172.743 44.5704 171.863 43.1995 171.189 41.5803C170.537 39.9396 170.211 38.0829 170.211 36.0104C170.211 33.9162 170.504 31.9732 171.091 30.1813C171.678 28.3679 172.449 26.8027 173.406 25.4858C174.362 24.1688 175.448 23.1434 176.665 22.4093C177.882 21.6537 179.132 21.2759 180.414 21.2759C181.349 21.2759 182.185 21.4378 182.924 21.7617C183.685 22.0855 184.326 22.5497 184.847 23.1541C185.369 23.737 185.76 24.4387 186.021 25.2591C186.303 26.0794 186.445 26.9862 186.445 27.9793ZM175.687 35.8161C175.687 36.0104 175.698 36.2047 175.72 36.399C175.742 36.5933 175.753 36.7984 175.753 37.0142C176.578 36.6256 177.328 36.1291 178.002 35.5246C178.676 34.9201 179.251 34.2293 179.73 33.4521C180.208 32.6749 180.577 31.8329 180.838 30.9262C181.099 29.9978 181.229 29.0371 181.229 28.044C181.229 27.31 181.099 26.7379 180.838 26.3277C180.599 25.9175 180.262 25.7124 179.827 25.7124C179.284 25.7124 178.795 25.8959 178.36 26.263C177.948 26.63 177.578 27.1157 177.252 27.7202C176.948 28.3031 176.687 28.9724 176.47 29.728C176.274 30.462 176.111 31.2068 175.981 31.9624C175.85 32.718 175.764 33.4413 175.72 34.1321C175.677 34.8014 175.666 35.3627 175.687 35.8161Z" fill="url(#paint6_linear_18_253)"/>
<defs>
<linearGradient id="paint0_linear_18_253" x1="51.7834" y1="19.6459" x2="198.588" y2="47.634" gradientUnits="userSpaceOnUse">
<stop stop-color="#F85C7F"/>
<stop offset="1" stop-color="#6E80F7"/>
</linearGradient>
<linearGradient id="paint1_linear_18_253" x1="51.7834" y1="19.6459" x2="198.588" y2="47.634" gradientUnits="userSpaceOnUse">
<stop stop-color="#F85C7F"/>
<stop offset="1" stop-color="#6E80F7"/>
</linearGradient>
<linearGradient id="paint2_linear_18_253" x1="51.7834" y1="19.6459" x2="198.588" y2="47.634" gradientUnits="userSpaceOnUse">
<stop stop-color="#F85C7F"/>
<stop offset="1" stop-color="#6E80F7"/>
</linearGradient>
<linearGradient id="paint3_linear_18_253" x1="51.7834" y1="19.6459" x2="198.588" y2="47.634" gradientUnits="userSpaceOnUse">
<stop stop-color="#F85C7F"/>
<stop offset="1" stop-color="#6E80F7"/>
</linearGradient>
<linearGradient id="paint4_linear_18_253" x1="51.7834" y1="19.6459" x2="198.588" y2="47.634" gradientUnits="userSpaceOnUse">
<stop stop-color="#F85C7F"/>
<stop offset="1" stop-color="#6E80F7"/>
</linearGradient>
<linearGradient id="paint5_linear_18_253" x1="51.7834" y1="19.6459" x2="198.588" y2="47.634" gradientUnits="userSpaceOnUse">
<stop stop-color="#F85C7F"/>
<stop offset="1" stop-color="#6E80F7"/>
</linearGradient>
<linearGradient id="paint6_linear_18_253" x1="51.7834" y1="19.6459" x2="198.588" y2="47.634" gradientUnits="userSpaceOnUse">
<stop stop-color="#F85C7F"/>
<stop offset="1" stop-color="#6E80F7"/>
</linearGradient>
</defs>
</svg>
