<svg width="50" height="48" viewBox="0 0 50 48" fill="none" xmlns="http://www.w3.org/2000/svg">
<path fill-rule="evenodd" clip-rule="evenodd" d="M10.5979 40.0972C10.7356 39.7509 13.2191 37.7083 14.6243 36.7519C17.264 34.9607 20.7871 34.7015 28.1461 35.7227C32.5708 36.3347 34.3626 36.4233 36.3151 36.1079C44.6267 34.7896 47.4866 29.6992 42.8621 24.4067L42.3881 23.8617L41.9997 24.8101C39.7883 30.1473 32.2287 31.6199 27.5318 27.6021C21.6584 22.5928 31.0384 16.3183 39.6667 19.4707L40.2766 19.7021C39.8906 18.9916 39.6374 17.3312 36.2734 13.6317C32.971 10.0013 33.0751 10.1318 32.1983 8.13427C31.1476 5.73343 31.2921 3.99727 32.658 2.57962C34.8871 0.279766 36.4415 1.77798 34.4019 2.70487C31.7764 3.90017 32.7671 7.12373 37.2862 11.6168C40.7438 15.0527 42.1169 17.203 42.4353 19.6803L42.611 20.9757L43.2558 21.3992C51.2692 26.6021 46.6768 36.1062 35.4111 37.7093C32.4226 38.1364 31.7882 38.1069 25.5098 37.2258C18.6258 36.2709 16.556 36.5731 13.4641 39.0534C11.326 40.7879 10.1139 41.2305 10.5979 40.0972ZM40.3455 22.4143C37.5092 20.1613 30.7913 19.629 28.7632 21.5074C25.365 24.6459 32.4179 30.1355 37.185 28.065C39.68 26.9738 41.6509 23.4459 40.3455 22.4143Z" fill="#FFDC94"/>
</svg>
