<svg width="113" height="29" viewBox="0 0 113 29" fill="none" xmlns="http://www.w3.org/2000/svg">
<g clip-path="url(#clip0_18_97)">
<path fill-rule="evenodd" clip-rule="evenodd" d="M37.8383 11.98C35.8161 11.3453 33.4065 10.5287 33.4065 8.44267C33.4065 6.84667 35.1643 5.75934 36.8365 5.75934C38.5072 5.75934 40.1779 6.75489 40.4408 8.80667H45.0141C44.6952 3.40111 40.0519 1.45978 37.0108 1.45978C31.9459 1.45978 28.8332 4.81511 28.8332 8.71489C28.8332 14.1562 33.6165 15.2809 36.359 16.2967C38.7343 17.1678 41.0194 17.93 41.0194 20.142C41.0194 22.2825 39.2959 23.5876 37.2394 23.5876C34.6883 23.5876 32.9305 21.8656 32.7548 19.0173H28.0943C28.183 25.9085 33.8094 27.9042 37.0636 27.9042C42.4272 27.9042 45.5912 24.4229 45.5912 19.8885C45.5756 13.9758 39.9834 12.6691 37.8383 11.98ZM14.0632 1.45978C6.50165 1.45978 0.909424 7.62756 0.909424 14.5187C0.909424 20.9042 5.86854 27.9042 14.0632 27.9042C22.3279 27.9042 27.217 20.7953 27.217 14.6276C27.1983 7.40978 21.449 1.45978 14.0632 1.45978ZM14.0632 23.5518C8.99831 23.5518 5.53409 19.162 5.53409 14.6649C5.53409 10.2207 8.96409 5.81378 14.0632 5.81378C19.1623 5.81378 22.5923 10.202 22.5923 14.6105C22.5736 19.344 18.9336 23.5518 14.0632 23.5518ZM59.7312 23.5518C54.6679 23.5518 51.4323 19.162 51.4323 14.6649C51.4323 10.2207 54.6321 5.81378 59.7312 5.81378C63.953 5.81378 66.0981 8.71489 66.8012 10.4929H71.779C71.037 6.77511 66.8183 1.45978 59.7296 1.45978C52.1696 1.45978 46.8045 7.62756 46.8045 14.5187C46.8045 20.9042 51.5536 27.9042 59.7312 27.9042C66.9396 27.9042 71.0199 22.7351 71.8645 18.8353H66.7296C66.0079 20.6133 63.953 23.5518 59.7312 23.5518ZM94.2863 5.596H94.1992C92.4414 2.87378 89.4159 1.45978 86.0216 1.45978C77.2639 1.45978 73.0965 8.49711 73.0965 14.6105C73.0965 20.7222 77.2654 27.9042 86.0216 27.9042C89.3972 27.9042 92.4399 26.4887 94.1992 23.7696H94.2863V27.2525H98.9468V2.14889H94.2863V5.596ZM86.0216 23.5518C80.4294 23.5518 77.7212 18.5631 77.7212 14.6649C77.7212 10.7651 80.4465 5.81378 86.0216 5.81378C90.6821 5.81378 94.4279 9.34956 94.4279 14.6649C94.4279 19.9787 90.6821 23.5518 86.0216 23.5518ZM106.807 13.7207C106.807 10.0573 108.039 8.27934 109.532 7.33667C110.589 6.64756 112.136 6.33956 112.909 6.33956V1.47844C111.766 1.47844 108.601 1.98556 106.667 4.96133H106.597V2.14889H102.164V27.2711H106.826C106.807 27.2711 106.807 17.2938 106.807 13.7222V13.7207Z" fill="#212A35"/>
</g>
<defs>
<clipPath id="clip0_18_97">
<rect width="112" height="28" fill="white" transform="translate(0.909424 0.5)"/>
</clipPath>
</defs>
</svg>
