<svg width="191" height="35" viewBox="0 0 191 35" fill="none" xmlns="http://www.w3.org/2000/svg">
<g clip-path="url(#clip0_18_107)">
<path d="M9.47788 14.3306L0 0H18.9558V14.3306H9.47788Z" fill="#212A35"/>
<path d="M9.47788 14.3306L18.9558 28.6611H0V14.3306H9.47788Z" fill="#212A35"/>
<path d="M48.8669 20.1064C48.8669 14.603 52.8311 11.1702 57.1015 11.1702C61.426 11.1702 64.0568 13.5496 64.1289 19.4889H53.2635C53.3356 24.9014 55.4438 26.6087 58.7593 26.6087C60.9756 26.6087 62.4711 25.8459 63.6964 25.2647V26.2091C62.6513 27.2626 60.3089 29.0607 57.0835 29.0607C51.6058 29.0607 48.8669 25.5916 48.8669 20.1064ZM53.2635 18.6352L59.6061 18.1266C59.6061 14.1671 58.9394 12.3145 56.9033 12.3145C54.8672 12.3145 53.3536 14.2216 53.2635 18.6352Z" fill="#212A35"/>
<path d="M65.3541 34.2553L66.3992 33.9647C67.2821 33.7286 67.4443 33.547 67.4443 32.1666V15.0934C67.4443 13.713 66.9398 13.3498 66.4352 13.0592C65.9307 12.7686 65.3 12.4053 65.3 12.4053V11.8423L71.7147 11.1339L71.6787 13.5859H71.8048C73.1202 12.3145 74.5257 11.1521 77.3006 11.1521C80.3638 11.1521 83.6792 13.2771 83.6792 19.3436C83.6792 25.9367 79.8412 29.0426 74.3815 29.0426C73.6067 29.0426 72.5616 28.9154 71.7868 28.6793C71.7868 28.6793 71.8229 29.5693 71.8229 30.7136V32.1303C71.8229 33.5652 71.949 33.7286 72.8319 33.9284L74.2374 34.219V34.9819H65.3901V34.2553H65.3541ZM79.1565 20.3062C79.1565 15.6202 77.5889 13.6222 74.832 13.6222C73.3364 13.6222 72.4175 14.1126 71.8048 14.3851V26.6814C72.5256 27.4079 73.3725 27.862 74.5977 27.862C77.6249 27.8438 79.1565 26.1728 79.1565 20.3062Z" fill="#212A35"/>
<path d="M87.0307 24.7379V15.0934C87.0307 13.822 86.6703 13.3679 86.0937 13.0592C85.4991 12.7504 84.8865 12.4053 84.8865 12.4053V11.8423L91.3913 11.1702V23.7208C91.3913 25.6643 92.2021 26.4998 93.8598 26.4998C95.1932 26.4998 96.4906 26.0094 97.4456 25.6824V15.0934C97.4456 13.822 97.0852 13.3679 96.5086 13.0592C95.914 12.7504 95.3013 12.4053 95.3013 12.4053V11.8423L101.806 11.1702V25.192C101.806 26.7722 101.932 26.9538 102.815 27.3171L103.896 27.8075V28.3705L97.5537 29.0426L97.6258 26.4453H97.4636C96.0942 27.6077 94.004 29.0426 91.3552 29.0426C88.6884 29.0607 87.0307 27.5532 87.0307 24.7379Z" fill="#212A35"/>
<path d="M116.311 24.6108C116.311 21.8319 118.654 20.5786 121.681 19.8521L125.519 18.9076V15.8563C125.519 13.3316 125.104 12.3508 122.924 12.3508C121.753 12.3508 121.429 12.6051 121.339 13.5677C121.176 15.2387 120.726 16.1287 119.122 16.1287C117.789 16.1287 117.14 15.3659 117.14 14.2943C117.14 12.1874 120.059 11.1702 123.843 11.1702C127.807 11.1702 129.897 12.5143 129.897 15.602V25.192C129.897 26.2818 130.096 26.7722 130.708 27.0991C131.105 27.2989 131.681 27.3897 132.24 27.3897V27.8983C131.681 28.3161 130.42 29.0607 128.852 29.0607C127.068 29.0607 126.023 28.2797 125.753 26.863H125.591C125.014 27.971 123.393 29.0971 121.194 29.0971C118.167 29.0971 116.311 27.4079 116.311 24.6108ZM125.519 25.8459V20.4515L123.627 20.6513C121.771 20.8148 120.636 21.6321 120.636 24.0296C120.636 26.0638 121.645 27.0628 123.176 27.0628C124.348 27.0628 125.159 26.4998 125.519 25.8459Z" fill="#212A35"/>
<path d="M134.492 24.9922V13.2953H132.348V12.4234C134.726 11.5698 136.546 10.1894 137.447 7.5921H138.853V11.8604H142.745V13.2953H138.853V24.6653C138.853 26.2091 139.411 26.8267 140.961 26.8267C141.808 26.8267 142.781 26.6269 143.393 26.4634V27.0446C142.673 27.6622 141.123 29.0425 138.636 29.0425C136.096 29.0607 134.492 27.9164 134.492 24.9922Z" fill="#212A35"/>
<path d="M144.096 27.8983L145.141 27.644C146.024 27.3897 146.186 27.1899 146.186 25.8459V15.0934C146.186 13.713 145.754 13.3861 145.177 13.0592C144.601 12.7322 144.042 12.4053 144.042 12.4053V11.8422L150.673 11.1521C150.673 11.1521 150.547 13.3679 150.547 14.9844V25.8277C150.547 27.2444 150.709 27.4079 151.592 27.6259L152.637 27.8801V28.643H144.114L144.096 27.8983ZM145.718 6.92009C145.718 5.57603 146.817 4.52258 148.222 4.52258C149.592 4.52258 150.691 5.57603 150.691 6.92009C150.691 8.26415 149.592 9.3176 148.222 9.3176C146.817 9.3176 145.718 8.26415 145.718 6.92009Z" fill="#212A35"/>
<path d="M153.718 20.179C153.718 14.0763 157.917 11.1702 162.205 11.1702C166.854 11.1702 170.728 14.04 170.728 19.9793C170.728 26.082 166.566 29.0971 162.205 29.0971C157.556 29.0971 153.718 26.1183 153.718 20.179ZM166.079 20.3788C166.079 14.04 164.71 12.3508 162.115 12.3508C159.701 12.3508 158.367 14.1671 158.367 19.6523C158.367 26.0638 159.628 27.8983 162.331 27.8983C164.692 27.9165 166.079 26.2636 166.079 20.3788Z" fill="#212A35"/>
<path d="M171.971 27.8983L173.016 27.644C173.899 27.3897 174.061 27.1899 174.061 25.8459V15.0934C174.061 13.713 173.629 13.3861 173.052 13.0592C172.476 12.7141 171.917 12.4053 171.917 12.4053V11.8423L178.314 11.1702L178.26 13.6041H178.422C179.846 12.369 181.9 11.1702 184.53 11.1702C187.485 11.1702 188.819 12.5869 188.819 15.5293V25.8277C188.819 27.2081 189.017 27.4079 189.864 27.6259L190.909 27.8801V28.643H182.476V27.8801L183.485 27.6259C184.332 27.3897 184.458 27.2989 184.458 25.8277V16.5646C184.458 14.4577 183.702 13.7857 181.99 13.7857C180.656 13.7857 179.233 14.1853 178.404 14.3851V25.8459C178.404 27.3171 178.53 27.4261 179.377 27.644L180.386 27.8983V28.6611H171.953L171.971 27.8983Z" fill="#212A35"/>
<path d="M35.7132 25.4281C35.7132 27.2807 35.9114 27.4442 36.8484 27.644L38.1097 27.8983V28.6611H28.4336V27.8983L29.6949 27.644C30.5598 27.4805 30.8661 27.2807 30.8661 25.4281V9.51737C30.8661 7.66475 30.5778 7.50128 29.6949 7.30149L28.4336 7.04721V6.28436H38.434C44.2901 6.28436 46.6506 8.75452 46.6506 11.8241C46.6506 14.8936 44.2361 17.3819 41.4251 17.9813V18.0721C41.4251 18.0721 45.6055 24.4291 47.4254 26.8085C47.7858 27.2626 48.0741 27.4624 48.7227 27.6622L49.4976 27.8983V28.6611H43.209L35.7132 17.3456H37.3529C40.2359 17.3456 41.8756 16.3103 41.8756 12.4053C41.8756 8.55473 40.8485 7.57393 38.1637 7.57393C36.9925 7.57393 35.7132 7.57393 35.7132 7.57393V25.4281Z" fill="#212A35"/>
<path d="M106.419 24.9922V13.2953H104.275V12.4234C106.653 11.5516 108.473 10.1712 109.374 7.5921H110.779V11.8604H114.672V13.2953H110.779V24.6653C110.779 26.2091 111.338 26.8267 112.888 26.8267C113.735 26.8267 114.708 26.6269 115.32 26.4634V27.0446C114.599 27.6622 113.05 29.0425 110.563 29.0425C108.005 29.0607 106.419 27.9164 106.419 24.9922Z" fill="#212A35"/>
</g>
<defs>
<clipPath id="clip0_18_107">
<rect width="190.909" height="35" fill="white"/>
</clipPath>
</defs>
</svg>
