<svg width="89" height="75" viewBox="0 0 89 75" fill="none" xmlns="http://www.w3.org/2000/svg">
<path d="M11.2969 0.390625C4.82422 0.390625 -0.421875 5.63672 -0.421875 12.1094V62.8906C-0.421875 69.3633 4.82422 74.6094 11.2969 74.6094H77.7031C84.1758 74.6094 89.4219 69.3633 89.4219 62.8906V12.1094C89.4219 5.63672 84.1758 0.390625 77.7031 0.390625H11.2969ZM11.2969 8.20312H77.7031C79.8613 8.20312 81.6094 9.95117 81.6094 12.1094V55.925L63.4095 39.5599C60.4348 36.8842 55.9145 36.8878 52.9457 39.5714L37.4733 53.5522L30.0652 47.216C27.1335 44.7082 22.8094 44.7175 19.8876 47.2351L7.39062 58.0002V12.1094C7.39062 9.95117 9.13867 8.20312 11.2969 8.20312ZM26.9219 19.9219C22.6074 19.9219 19.1094 23.4199 19.1094 27.7344C19.1094 32.0488 22.6074 35.5469 26.9219 35.5469C31.2363 35.5469 34.7344 32.0488 34.7344 27.7344C34.7344 23.4199 31.2363 19.9219 26.9219 19.9219Z" fill="#131920"/>
</svg>
