<svg width="84" height="35" viewBox="0 0 84 35" fill="none" xmlns="http://www.w3.org/2000/svg">
<path fill-rule="evenodd" clip-rule="evenodd" d="M84 18.0841C84 12.1028 81.1103 7.38318 75.5873 7.38318C70.041 7.38318 66.6853 12.1028 66.6853 18.0374C66.6853 25.0701 70.6469 28.6215 76.333 28.6215C79.1062 28.6215 81.2035 27.9907 82.7882 27.1028V22.4299C81.2035 23.2243 79.3858 23.715 77.0788 23.715C74.8183 23.715 72.8142 22.9206 72.5578 20.1636H83.9534C83.9534 19.8598 84 18.6449 84 18.0841ZM72.4879 15.8645C72.4879 13.2243 74.0959 12.1262 75.564 12.1262C76.9855 12.1262 78.5003 13.2243 78.5003 15.8645H72.4879Z" fill="#212A35"/>
<path fill-rule="evenodd" clip-rule="evenodd" d="M57.6902 7.38318C55.4064 7.38318 53.9383 8.45795 53.1226 9.20561L52.8197 7.75701H47.6929V35L53.5188 33.7617L53.5421 27.1495C54.381 27.757 55.6161 28.6215 57.6669 28.6215C61.8382 28.6215 65.6368 25.257 65.6368 17.8505C65.6134 11.0748 61.7683 7.38318 57.6902 7.38318ZM56.2919 23.4813C54.917 23.4813 54.1014 22.9907 53.5421 22.3832L53.5188 13.715C54.1247 13.0374 54.9636 12.5701 56.2919 12.5701C58.4126 12.5701 59.8807 14.9533 59.8807 18.014C59.8807 21.1449 58.4359 23.4813 56.2919 23.4813Z" fill="#212A35"/>
<path fill-rule="evenodd" clip-rule="evenodd" d="M39.6763 6.00467L45.5255 4.74299V0L39.6763 1.23832V6.00467Z" fill="#212A35"/>
<path d="M45.5255 7.7804H39.6763V28.2243H45.5255V7.7804Z" fill="#212A35"/>
<path fill-rule="evenodd" clip-rule="evenodd" d="M33.4076 9.5093L33.0347 7.78033H28.0011V28.2243H33.827V14.3691C35.202 12.57 37.5323 12.8971 38.2547 13.1542V7.78033C37.509 7.49995 34.7825 6.98593 33.4076 9.5093Z" fill="#212A35"/>
<path fill-rule="evenodd" clip-rule="evenodd" d="M21.7558 2.71027L16.0697 3.92522L16.0464 22.6402C16.0464 26.0981 18.6331 28.6449 22.0821 28.6449C23.993 28.6449 25.3912 28.2944 26.1602 27.8738V23.1308C25.4145 23.4346 21.7325 24.5093 21.7325 21.0514V12.757H26.1602V7.78036H21.7325L21.7558 2.71027Z" fill="#212A35"/>
<path fill-rule="evenodd" clip-rule="evenodd" d="M6.00241 13.715C6.00241 12.8037 6.74813 12.4533 7.98323 12.4533C9.75432 12.4533 11.9915 12.9907 13.7626 13.9486V8.45794C11.8283 7.68692 9.91744 7.38318 7.98323 7.38318C3.25257 7.38318 0.106567 9.85981 0.106567 13.9953C0.106567 20.4439 8.96199 19.4159 8.96199 22.1963C8.96199 23.271 8.02984 23.6215 6.72483 23.6215C4.79062 23.6215 2.32042 22.8271 0.362908 21.7523V27.3131C2.53016 28.2477 4.72071 28.6449 6.72483 28.6449C11.572 28.6449 14.9044 26.2383 14.9044 22.0561C14.8811 15.0935 6.00241 16.3318 6.00241 13.715Z" fill="#212A35"/>
</svg>
