<svg width="30" height="30" viewBox="0 0 30 30" fill="none" xmlns="http://www.w3.org/2000/svg">
<path d="M26.25 7.47461C22.0875 7.06211 17.9 6.84961 13.725 6.84961C11.25 6.84961 8.775 6.97461 6.3 7.22461L3.75 7.47461" stroke="url(#paint0_linear_15_42)" stroke-width="2" stroke-linecap="round" stroke-linejoin="round"/>
<path d="M10.625 6.2125L10.9 4.575C11.1 3.3875 11.25 2.5 13.3625 2.5H16.6375C18.75 2.5 18.9125 3.4375 19.1 4.5875L19.375 6.2125" stroke="url(#paint1_linear_15_42)" stroke-width="2" stroke-linecap="round" stroke-linejoin="round"/>
<path d="M23.5625 11.4248L22.75 24.0123C22.6125 25.9748 22.5 27.4998 19.0125 27.4998H10.9875C7.5 27.4998 7.3875 25.9748 7.25 24.0123L6.4375 11.4248" stroke="url(#paint2_linear_15_42)" stroke-width="2" stroke-linecap="round" stroke-linejoin="round"/>
<path d="M12.9125 20.625H17.075" stroke="url(#paint3_linear_15_42)" stroke-width="2" stroke-linecap="round" stroke-linejoin="round"/>
<path d="M11.875 15.625H18.125" stroke="url(#paint4_linear_15_42)" stroke-width="2" stroke-linecap="round" stroke-linejoin="round"/>
<defs>
<linearGradient id="paint0_linear_15_42" x1="70" y1="33.9999" x2="-36.5" y2="-8.0001" gradientUnits="userSpaceOnUse">
<stop stop-color="#6E80F7"/>
<stop offset="1" stop-color="#F85C7F"/>
</linearGradient>
<linearGradient id="paint1_linear_15_42" x1="-37" y1="-7.5" x2="68" y2="35" gradientUnits="userSpaceOnUse">
<stop stop-color="#F85C7F"/>
<stop offset="1" stop-color="#6E80F7"/>
</linearGradient>
<linearGradient id="paint2_linear_15_42" x1="-33.5" y1="-4.5" x2="66.5" y2="35" gradientUnits="userSpaceOnUse">
<stop stop-color="#F85C7F"/>
<stop offset="1" stop-color="#6E80F7"/>
</linearGradient>
<linearGradient id="paint3_linear_15_42" x1="64.5" y1="32" x2="-34" y2="-6.49999" gradientUnits="userSpaceOnUse">
<stop stop-color="#6E80F7"/>
<stop offset="1" stop-color="#F85C7F"/>
</linearGradient>
<linearGradient id="paint4_linear_15_42" x1="-26" y1="-3.50002" x2="60" y2="35.5" gradientUnits="userSpaceOnUse">
<stop stop-color="#F85C7F"/>
<stop offset="1" stop-color="#6E80F7"/>
</linearGradient>
</defs>
</svg>
